HIERARCHY
ROOT Hips
{
 OFFSET 0.000000 0.000000 0.000000
 CHANNELS 6 Xposition Yposition Zposition Yrotation Xrotation Zrotation
 JOINT Chest
 {
  OFFSET 0.000000 10.354800 0.006500
  CHANNELS 3 Yrotation Xrotation Zrotation
  JOINT Chest2
  {
   OFFSET 0.000000 10.435800 -0.013200
   CHANNELS 3 Yrotation Xrotation Zrotation
   JOINT Chest3
   {
    OFFSET 0.000000 10.393700 0.000000
    CHANNELS 3 Yrotation Xrotation Zrotation
    JOINT Chest4
    {
     OFFSET 0.000000 10.383100 0.000000
     CHANNELS 3 Yrotation Xrotation Zrotation
     JOINT Neck
     {
      OFFSET 0.000000 15.694000 0.000000
      CHANNELS 3 Yrotation Xrotation Zrotation
      JOINT Head
      {
       OFFSET 0.000000 9.711000 -0.028000
       CHANNELS 3 Yrotation Xrotation Zrotation
       End Site
       {
        OFFSET 0.000000 18.578700 -0.014800
       }
      }
     }
     JOINT RightCollar
     {
      OFFSET -3.157200 10.367500 0.000000
      CHANNELS 3 Yrotation Xrotation Zrotation
      JOINT RightShoulder
      {
       OFFSET -14.482500 0.000000 0.000000
       CHANNELS 3 Yrotation Xrotation Zrotation
       JOINT RightElbow
       {
        OFFSET 0.000000 -31.707800 0.000000
        CHANNELS 3 Yrotation Xrotation Zrotation
        JOINT RightWrist
        {
         OFFSET 0.000000 -25.659300 0.000000
         CHANNELS 3 Yrotation Xrotation Zrotation
         End Site
         {
          OFFSET 0.000000 -18.994300 0.000000
         }
        }
       }
      }
     }
     JOINT LeftCollar
     {
      OFFSET 3.157200 10.367500 0.000000
      CHANNELS 3 Yrotation Xrotation Zrotation
      JOINT LeftShoulder
      {
       OFFSET 14.482500 0.000000 0.000000
       CHANNELS 3 Yrotation Xrotation Zrotation
       JOINT LeftElbow
       {
        OFFSET 0.000000 -31.707800 0.000000
        CHANNELS 3 Yrotation Xrotation Zrotation
        JOINT LeftWrist
        {
         OFFSET 0.000000 -25.659300 0.000000
         CHANNELS 3 Yrotation Xrotation Zrotation
         End Site
         {
          OFFSET 0.000000 -18.994300 0.000000
         }
        }
       }
      }
     }
    }
   }
  }
 }
 JOINT RightHip
 {
  OFFSET -8.365600 -0.032100 -0.003200
  CHANNELS 3 Yrotation Xrotation Zrotation
  JOINT RightKnee
  {
   OFFSET 0.000000 -43.980000 0.003100
   CHANNELS 3 Yrotation Xrotation Zrotation
   JOINT RightAnkle
   {
    OFFSET 0.000000 -42.882800 0.005200
    CHANNELS 3 Yrotation Xrotation Zrotation
    JOINT RightToe
    {
     OFFSET 0.000000 -4.915500 10.826300
     CHANNELS 3 Yrotation Xrotation Zrotation
     End Site
     {
      OFFSET 0.000000 -1.517500 6.175900
     }
    }
   }
  }
 }
 JOINT LeftHip
 {
  OFFSET 8.365600 -0.032100 -0.003200
  CHANNELS 3 Yrotation Xrotation Zrotation
  JOINT LeftKnee
  {
   OFFSET 0.000000 -43.980000 0.003100
   CHANNELS 3 Yrotation Xrotation Zrotation
   JOINT LeftAnkle
   {
    OFFSET 0.000000 -42.882800 0.005200
    CHANNELS 3 Yrotation Xrotation Zrotation
    JOINT LeftToe
    {
     OFFSET 0.000000 -4.915500 10.826300
     CHANNELS 3 Yrotation Xrotation Zrotation
     End Site
     {
      OFFSET 0.000000 -1.517500 6.175900
     }
    }
   }
  }
 }
}
MOTION
Frames: 8
Frame Time: 0.008333
4.558488 127.077075 32.925935 179.753137 -31.477198 -7.875070 4.218799 18.185117 1.928622 0.449076 2.102823 0.152463 0.745759 3.475183 0.261051 3.611119 15.828107 1.597594 -2.475224 22.972150 -1.088274 -2.345527 -1.133589 -0.636278 2.595538 6.552081 -3.369920 12.488574 -23.111461 -8.280410 43.673978 -34.521606 -43.809958 -6.259627 -5.487383 -7.979567 -3.118197 7.764431 2.536600 -33.482328 -42.816100 12.614634 -34.934547 -13.182872 20.003147 -7.081112 9.373955 23.982499 7.360004 -40.653428 -4.096721 -161.207498 67.965049 -156.446936 -3.435155 -29.029479 9.926284 -0.010273 -0.008236 -0.004664 -8.555999 -40.515551 7.855371 169.542306 74.633064 166.020799 -4.544864 -31.746371 3.849811 0.004211 0.002276 0.001912
4.554568 127.070794 32.909405 179.803500 -31.326188 -7.889093 4.180624 18.075562 1.919776 0.475633 2.118679 0.157676 0.741052 3.446311 0.262123 3.605327 15.768944 1.606622 -2.456548 22.930270 -1.101623 -2.395245 -1.102038 -0.625747 2.540997 6.541150 -3.357291 12.368403 -22.968334 -8.084429 43.531776 -34.346938 -43.641271 -6.230722 -5.338664 -8.140259 -3.126511 7.779205 2.550663 -33.483254 -42.844175 12.601225 -34.926252 -13.103961 19.798878 -6.981174 9.309652 24.141967 7.336736 -40.789330 -4.112264 -161.202041 67.968506 -156.455826 -3.461833 -29.031211 9.939728 -0.018652 -0.012771 -0.008467 -8.625076 -40.659094 7.860787 169.522104 74.641937 165.992896 -4.569541 -31.708503 3.860368 0.008369 0.003178 0.003800
4.552077 127.064608 32.892515 179.859173 -31.170946 -7.916268 4.140351 17.962011 1.920926 0.501163 2.133286 0.163595 0.736031 3.416402 0.263353 3.598964 15.707267 1.616412 -2.478927 22.921780 -1.111052 -2.417214 -1.111519 -0.630757 2.483558 6.530643 -3.347554 12.233547 -22.830348 -7.889026 43.402450 -34.179005 -43.449478 -6.208678 -5.164937 -8.286808 -3.093831 7.771847 2.581052 -33.544323 -42.933877 12.611572 -34.932387 -12.959657 19.530791 -6.883807 9.254302 24.305174 7.320020 -40.922650 -4.093273 -161.123366 67.966804 -156.376688 -3.492934 -29.045611 9.917747 -0.013285 -0.011465 -0.006031 -8.711351 -40.805514 7.882334 169.536656 74.656661 165.992723 -4.565882 -31.678926 3.869812 0.008835 0.002029 0.004011
4.548423 127.058543 32.874810 179.915619 -31.016461 -7.939705 4.176196 17.929649 1.954385 0.453388 2.062886 0.157486 0.706341 3.379051 0.258647 3.616158 15.650859 1.630631 -2.506711 22.912078 -1.120232 -2.445124 -1.122323 -0.634265 2.428198 6.518105 -3.341842 12.094375 -22.688332 -7.697454 43.301953 -34.008890 -43.256187 -6.179331 -4.963039 -8.431348 -3.004438 7.729310 2.650337 -33.673294 -42.998982 12.571057 -34.942156 -12.786304 19.284194 -6.728255 9.195108 24.441884 7.306682 -41.051920 -4.082004 -161.041330 67.966734 -156.293249 -3.520890 -29.060503 9.890430 -0.008023 -0.009212 -0.003642 -8.796650 -40.947519 7.888625 169.535498 74.677494 165.983272 -4.547865 -31.650335 3.867836 0.007993 0.003082 0.003629
4.543763 127.052504 32.856728 179.973941 -30.862547 -7.960959 4.176635 17.860974 1.972111 0.422211 2.017353 0.151631 0.689107 3.354600 0.256585 3.623175 15.604490 1.639717 -2.531085 22.904729 -1.126674 -2.479164 -1.149121 -0.634124 2.390333 6.524256 -3.341530 11.951571 -22.571972 -7.516894 43.231810 -33.831098 -43.072158 -6.132113 -4.730693 -8.568681 -2.947655 7.697866 2.704457 -33.826814 -43.060598 12.579735 -34.938105 -12.597165 19.039336 -6.556869 9.163313 24.525631 7.286187 -41.180189 -4.083779 -160.980690 67.969226 -156.236424 -3.544339 -29.070705 9.872845 -0.007829 -0.008832 -0.003554 -8.880933 -41.089625 7.899811 169.567225 74.698936 166.003816 -4.534319 -31.627174 3.873102 0.009780 0.001793 0.004440
4.539223 127.046726 32.838342 -179.968492 -30.711926 -7.985201 4.163117 17.775539 1.986719 0.418460 1.998080 0.152561 0.685130 3.326968 0.256011 3.611394 15.537868 1.652625 -2.574535 22.943616 -1.141529 -2.518095 -1.207175 -0.627038 2.337870 6.492142 -3.342521 11.823545 -22.397617 -7.343411 43.178663 -33.642740 -42.895725 -6.061767 -4.473136 -8.681574 -2.917615 7.692213 2.743927 -34.022403 -43.127645 12.634301 -34.900094 -12.391844 18.778263 -6.387114 9.150710 24.619504 7.264270 -41.303712 -4.087123 -160.908027 67.971410 -156.153215 -3.557295 -29.080634 9.840370 -0.001018 -0.007700 -0.000462 -8.972636 -41.223585 7.911629 169.591418 74.723159 166.015196 -4.510483 -31.607153 3.873606 0.008104 0.002394 0.003679
4.534910 127.041207 32.819761 -179.912288 -30.565781 -8.012995 4.151218 17.691282 2.005050 0.428189 1.988477 0.157462 0.667411 3.289671 0.255333 3.608923 15.457198 1.671141 -2.627006 22.950248 -1.158699 -2.566741 -1.216819 -0.617978 2.279797 6.475579 -3.348692 11.708964 -22.217844 -7.184359 43.136054 -33.436223 -42.731246 -5.987490 -4.206244 -8.752944 -2.898536 7.702004 2.778329 -34.250390 -43.198065 12.710619 -34.844418 -12.168785 18.506349 -6.233053 9.139956 24.705758 7.242067 -41.421942 -4.087802 -160.843725 67.975218 -156.077445 -3.579236 -29.086251 9.839365 0.005184 -0.006866 0.002354 -9.077840 -41.350872 7.933908 169.648168 74.743848 166.054640 -4.477677 -31.590286 3.872166 0.005970 0.003191 0.002711
4.529513 127.035605 32.801226 -179.856236 -30.423002 -8.037837 4.138904 17.608020 2.019036 0.398533 1.953134 0.153458 0.721840 3.279949 0.273555 3.542767 15.420083 1.664064 -2.646074 22.862972 -1.143518 -2.617626 -1.177012 -0.624252 2.261282 6.441821 -3.348348 11.612894 -22.059193 -7.043252 43.100575 -33.203262 -42.581747 -5.935945 -3.962532 -8.768330 -2.851085 7.672278 2.826486 -34.498941 -43.277474 12.801080 -34.795403 -11.925430 18.228987 -6.085215 9.139350 24.778394 7.222020 -41.533979 -4.090747 -160.799393 67.980389 -156.030881 -3.610130 -29.095881 9.852201 0.006986 -0.006623 0.003171 -9.193917 -41.471690 7.960868 169.770765 74.770896 166.150917 -4.433662 -31.577086 3.872691 0.003412 0.004436 0.001549
